<svg width="16" height="17" viewBox="0 0 16 17" fill="#FFFFFF" xmlns="http://www.w3.org/2000/svg">
<g clip-path="url(#clip0_499_1810)">
<path d="M12.5668 1.88532H11.9054V1.22391C11.9054 1.04849 11.8357 0.880261 11.7117 0.756223C11.5876 0.632184 11.4194 0.5625 11.244 0.5625C11.0686 0.5625 10.9003 0.632184 10.7763 0.756223C10.6523 0.880261 10.5826 1.04849 10.5826 1.22391V1.88532H5.29128V1.22391C5.29128 1.04849 5.2216 0.880261 5.09756 0.756223C4.97352 0.632184 4.80529 0.5625 4.62987 0.5625C4.45446 0.5625 4.28622 0.632184 4.16219 0.756223C4.03815 0.880261 3.96846 1.04849 3.96846 1.22391V1.88532H3.30705C2.43029 1.88637 1.58974 2.23513 0.969773 2.85509C0.349808 3.47506 0.00105023 4.31561 0 5.19237L0 13.1293C0.00105023 14.0061 0.349808 14.8466 0.969773 15.4666C1.58974 16.0865 2.43029 16.4353 3.30705 16.4363H12.5668C13.4436 16.4353 14.2841 16.0865 14.9041 15.4666C15.524 14.8466 15.8728 14.0061 15.8738 13.1293V5.19237C15.8728 4.31561 15.524 3.47506 14.9041 2.85509C14.2841 2.23513 13.4436 1.88637 12.5668 1.88532ZM1.32282 5.19237C1.32282 4.66612 1.53187 4.16143 1.90399 3.78931C2.2761 3.41719 2.7808 3.20814 3.30705 3.20814H12.5668C13.093 3.20814 13.5977 3.41719 13.9699 3.78931C14.342 4.16143 14.551 4.66612 14.551 5.19237V5.85378H1.32282V5.19237ZM12.5668 15.1135H3.30705C2.7808 15.1135 2.2761 14.9045 1.90399 14.5324C1.53187 14.1602 1.32282 13.6555 1.32282 13.1293V7.1766H14.551V13.1293C14.551 13.6555 14.342 14.1602 13.9699 14.5324C13.5977 14.9045 13.093 15.1135 12.5668 15.1135Z" fill="#FFFFFF"/>
<path d="M7.93694 11.4764C8.48487 11.4764 8.92906 11.0322 8.92906 10.4843C8.92906 9.93637 8.48487 9.49219 7.93694 9.49219C7.38901 9.49219 6.94482 9.93637 6.94482 10.4843C6.94482 11.0322 7.38901 11.4764 7.93694 11.4764Z" fill="#FFFFFF"/>
<path d="M4.62981 11.4764C5.17774 11.4764 5.62193 11.0322 5.62193 10.4843C5.62193 9.93637 5.17774 9.49219 4.62981 9.49219C4.08188 9.49219 3.6377 9.93637 3.6377 10.4843C3.6377 11.0322 4.08188 11.4764 4.62981 11.4764Z" fill="#FFFFFF"/>
<path d="M11.2441 11.4764C11.792 11.4764 12.2362 11.0322 12.2362 10.4843C12.2362 9.93637 11.792 9.49219 11.2441 9.49219C10.6961 9.49219 10.252 9.93637 10.252 10.4843C10.252 11.0322 10.6961 11.4764 11.2441 11.4764Z" fill="#FFFFFF"/>
</g>
<defs>
<clipPath id="clip0_499_1810">
<rect width="15.8738" height="15.8738" fill="white" transform="translate(0 0.5625)"/>
</clipPath>
</defs>
</svg>
