<svg width="62" height="62" viewBox="0 0 62 62" fill="none" xmlns="http://www.w3.org/2000/svg">
<path d="M12.9167 33.842C12.9188 33.3311 13.0724 32.8323 13.358 32.4087C13.6436 31.9851 14.0485 31.6556 14.5213 31.4621C14.9941 31.2685 15.5137 31.2195 16.0144 31.3213C16.5151 31.423 16.9744 31.6709 17.3342 32.0337L29.1658 43.9171C29.406 44.1592 29.6917 44.3514 30.0065 44.4825C30.3213 44.6137 30.659 44.6812 31 44.6812C31.341 44.6812 31.6787 44.6137 31.9935 44.4825C32.3083 44.3514 32.594 44.1592 32.8342 43.9171L44.6658 32.0337C44.906 31.7916 45.1917 31.5994 45.5065 31.4682C45.8213 31.3371 46.159 31.2696 46.5 31.2696C46.841 31.2696 47.1787 31.3371 47.4935 31.4682C47.8083 31.5994 48.094 31.7916 48.3342 32.0337C48.8153 32.5177 49.0854 33.1725 49.0854 33.855C49.0854 34.5374 48.8153 35.1922 48.3342 35.6762L36.4767 47.5337C35.0235 48.9851 33.0538 49.8003 31 49.8003C28.9462 49.8003 26.9765 48.9851 25.5233 47.5337L13.6658 35.6762C13.4264 35.4348 13.237 35.1485 13.1084 34.8338C12.9799 34.5191 12.9147 34.182 12.9167 33.842Z" fill="#374957"/>
<path d="M12.9167 33.842C12.9188 33.3311 13.0724 32.8323 13.358 32.4087C13.6436 31.9851 14.0485 31.6556 14.5213 31.4621C14.9941 31.2685 15.5137 31.2195 16.0144 31.3213C16.5151 31.423 16.9744 31.6709 17.3342 32.0337L29.1658 43.9171C29.406 44.1592 29.6917 44.3514 30.0065 44.4825C30.3213 44.6137 30.659 44.6812 31 44.6812C31.341 44.6812 31.6787 44.6137 31.9935 44.4825C32.3083 44.3514 32.594 44.1592 32.8342 43.9171L44.6658 32.0337C44.906 31.7916 45.1917 31.5994 45.5065 31.4682C45.8213 31.3371 46.159 31.2696 46.5 31.2696C46.841 31.2696 47.1787 31.3371 47.4935 31.4682C47.8083 31.5994 48.094 31.7916 48.3342 32.0337C48.8153 32.5177 49.0854 33.1725 49.0854 33.855C49.0854 34.5374 48.8153 35.1922 48.3342 35.6762L36.4767 47.5337C35.0235 48.9851 33.0538 49.8003 31 49.8003C28.9462 49.8003 26.9765 48.9851 25.5233 47.5337L13.6658 35.6762C13.4264 35.4348 13.237 35.1485 13.1084 34.8338C12.9799 34.5191 12.9147 34.182 12.9167 33.842Z" fill="#E11616"/>
<path d="M12.9167 15.758C12.9188 15.2471 13.0724 14.7483 13.358 14.3247C13.6436 13.9011 14.0485 13.5717 14.5213 13.3781C14.9941 13.1845 15.5137 13.1355 16.0144 13.2373C16.5151 13.339 16.9744 13.587 17.3342 13.9497L31 27.6156L44.6658 13.9497C44.906 13.7076 45.1917 13.5154 45.5065 13.3842C45.8213 13.2531 46.159 13.1856 46.5 13.1856C46.841 13.1856 47.1787 13.2531 47.4935 13.3842C47.8083 13.5154 48.094 13.7076 48.3342 13.9497C48.8153 14.4337 49.0854 15.0885 49.0854 15.771C49.0854 16.4534 48.8153 17.1082 48.3342 17.5922L32.8342 33.0922C32.594 33.3344 32.3083 33.5265 31.9935 33.6577C31.6787 33.7888 31.341 33.8564 31 33.8564C30.659 33.8564 30.3213 33.7888 30.0065 33.6577C29.6917 33.5265 29.406 33.3344 29.1658 33.0922L13.6658 17.5922C13.4264 17.3508 13.237 17.0646 13.1084 16.7498C12.9799 16.4351 12.9147 16.098 12.9167 15.758Z" fill="#374957"/>
<path d="M12.9167 15.758C12.9188 15.2471 13.0724 14.7483 13.358 14.3247C13.6436 13.9011 14.0485 13.5717 14.5213 13.3781C14.9941 13.1845 15.5137 13.1355 16.0144 13.2373C16.5151 13.339 16.9744 13.587 17.3342 13.9497L31 27.6156L44.6658 13.9497C44.906 13.7076 45.1917 13.5154 45.5065 13.3842C45.8213 13.2531 46.159 13.1856 46.5 13.1856C46.841 13.1856 47.1787 13.2531 47.4935 13.3842C47.8083 13.5154 48.094 13.7076 48.3342 13.9497C48.8153 14.4337 49.0854 15.0885 49.0854 15.771C49.0854 16.4534 48.8153 17.1082 48.3342 17.5922L32.8342 33.0922C32.594 33.3344 32.3083 33.5265 31.9935 33.6577C31.6787 33.7888 31.341 33.8564 31 33.8564C30.659 33.8564 30.3213 33.7888 30.0065 33.6577C29.6917 33.5265 29.406 33.3344 29.1658 33.0922L13.6658 17.5922C13.4264 17.3508 13.237 17.0646 13.1084 16.7498C12.9799 16.4351 12.9147 16.098 12.9167 15.758Z" fill="#E11616"/>
</svg>
