<svg width="16" height="17" viewBox="0 0 16 17" fill="#FFFFFF" xmlns="http://www.w3.org/2000/svg">
<g clip-path="url(#clip0_499_1813)">
<path d="M8.61584 1.91905V1.22391C8.61584 1.04849 8.54615 0.880261 8.42211 0.756223C8.29808 0.632184 8.12984 0.5625 7.95443 0.5625C7.77901 0.5625 7.61078 0.632184 7.48674 0.756223C7.3627 0.880261 7.29302 1.04849 7.29302 1.22391V1.91905C5.96144 2.03843 4.68866 2.52306 3.6149 3.31954C2.54115 4.11602 1.70808 5.19344 1.2075 6.4331C0.706918 7.67276 0.558242 9.02654 0.777855 10.3453C0.997468 11.664 1.57684 12.8966 2.45215 13.9071C2.10648 14.0781 1.81762 14.3454 1.62035 14.6768C1.42309 15.0082 1.32584 15.3896 1.34032 15.7749C1.34032 15.9504 1.41001 16.1186 1.53404 16.2426C1.65808 16.3667 1.82632 16.4364 2.00173 16.4364C2.17715 16.4364 2.34538 16.3667 2.46942 16.2426C2.59346 16.1186 2.66314 15.9504 2.66314 15.7749C2.65765 15.5711 2.73084 15.3729 2.86753 15.2216C3.00423 15.0702 3.19394 14.9773 3.39731 14.9621C3.4428 14.9534 3.48718 14.9397 3.52959 14.9211C4.79654 15.9037 6.35437 16.437 7.95773 16.437C9.5611 16.437 11.1189 15.9037 12.3859 14.9211C12.4246 14.9389 12.4649 14.9531 12.5063 14.9634C12.7103 14.9773 12.9012 15.0695 13.0389 15.2207C13.1767 15.3719 13.2508 15.5704 13.2457 15.7749C13.2457 15.9504 13.3154 16.1186 13.4394 16.2426C13.5635 16.3667 13.7317 16.4364 13.9071 16.4364C14.0825 16.4364 14.2508 16.3667 14.3748 16.2426C14.4988 16.1186 14.5685 15.9504 14.5685 15.7749C14.583 15.3896 14.4858 15.0082 14.2885 14.6768C14.0912 14.3454 13.8024 14.0781 13.4567 13.9071C14.332 12.8966 14.9114 11.664 15.131 10.3453C15.3506 9.02654 15.2019 7.67276 14.7014 6.4331C14.2008 5.19344 13.3677 4.11602 12.2939 3.31954C11.2202 2.52306 9.94741 2.03843 8.61584 1.91905V1.91905ZM2.00173 9.16084C2.00173 7.9835 2.35085 6.83261 3.00494 5.8537C3.65903 4.87478 4.58872 4.11181 5.67643 3.66126C6.76414 3.21072 7.96103 3.09284 9.11574 3.32252C10.2704 3.55221 11.3311 4.11915 12.1636 4.95165C12.9961 5.78414 13.5631 6.84481 13.7927 7.99952C14.0224 9.15423 13.9045 10.3511 13.454 11.4388C13.0035 12.5265 12.2405 13.4562 11.2616 14.1103C10.2827 14.7644 9.13176 15.1135 7.95443 15.1135C6.37626 15.1116 4.86329 14.4838 3.74736 13.3679C2.63143 12.252 2.00366 10.739 2.00173 9.16084V9.16084Z" fill="#FFFFFF"/>
<path d="M12.7264 0.561082C12.5509 0.561082 12.3827 0.630766 12.2587 0.754805C12.1346 0.878843 12.0649 1.04708 12.0649 1.22249C12.0649 1.39791 12.1346 1.56614 12.2587 1.69018C12.3827 1.81422 12.5509 1.8839 12.7264 1.8839C12.957 1.86637 13.1888 1.89573 13.4078 1.9702C13.6268 2.04468 13.8284 2.16273 14.0005 2.31725C14.1727 2.47176 14.3117 2.65953 14.4093 2.86924C14.5069 3.07894 14.561 3.30624 14.5684 3.53743C14.5684 3.71285 14.6381 3.88108 14.7621 4.00512C14.8861 4.12915 15.0544 4.19884 15.2298 4.19884C15.4052 4.19884 15.5734 4.12915 15.6975 4.00512C15.8215 3.88108 15.8912 3.71285 15.8912 3.53743C15.8827 3.13297 15.7937 2.73427 15.6293 2.36464C15.4649 1.995 15.2284 1.66187 14.9337 1.38473C14.639 1.10758 14.292 0.89199 13.913 0.750566C13.534 0.609141 13.1306 0.544724 12.7264 0.561082V0.561082Z" fill="#FFFFFF"/>
<path d="M1.33991 3.53743C1.34728 3.30624 1.4014 3.07894 1.49899 2.86924C1.59659 2.65953 1.73564 2.47176 1.90777 2.31725C2.07989 2.16273 2.28153 2.04468 2.50051 1.9702C2.7195 1.89573 2.9513 1.86637 3.18194 1.8839C3.35736 1.8839 3.52559 1.81422 3.64963 1.69018C3.77366 1.56614 3.84335 1.39791 3.84335 1.22249C3.84335 1.04708 3.77366 0.878843 3.64963 0.754805C3.52559 0.630766 3.35736 0.561082 3.18194 0.561082C2.77773 0.544724 2.37431 0.609141 1.99529 0.750566C1.61627 0.89199 1.26926 1.10758 0.974565 1.38473C0.679868 1.66187 0.4434 1.995 0.278996 2.36464C0.114592 2.73427 0.0255534 3.13297 0.0170898 3.53743C0.0170898 3.71285 0.086774 3.88108 0.210812 4.00512C0.334851 4.12915 0.503083 4.19884 0.6785 4.19884C0.853917 4.19884 1.02215 4.12915 1.14619 4.00512C1.27023 3.88108 1.33991 3.71285 1.33991 3.53743Z" fill="#FFFFFF"/>
<path d="M8.61579 8.22589V5.19266C8.61579 5.01724 8.54611 4.84901 8.42207 4.72497C8.29803 4.60093 8.1298 4.53125 7.95438 4.53125C7.77896 4.53125 7.61073 4.60093 7.48669 4.72497C7.36265 4.84901 7.29297 5.01724 7.29297 5.19266V8.49971C7.29301 8.67512 7.36272 8.84332 7.48676 8.96733L9.47099 10.9516C9.59574 11.072 9.76281 11.1387 9.93623 11.1372C10.1096 11.1357 10.2755 11.0661 10.3982 10.9435C10.5208 10.8209 10.5904 10.655 10.5919 10.4816C10.5934 10.3081 10.5267 10.1411 10.4062 10.0163L8.61579 8.22589Z" fill="#FFFFFF"/>
</g>
<defs>
<clipPath id="clip0_499_1813">
<rect width="15.8738" height="15.8738" fill="white" transform="translate(0.0170898 0.5625)"/>
</clipPath>
</defs>
</svg>
